<svg width="68" height="28" viewBox="0 0 68 28" fill="none" xmlns="http://www.w3.org/2000/svg">
<path d="M16.3768 16.4052L13.5108 14.7728C13.1496 14.5806 12.8468 14.2961 12.6338 13.9487C12.4208 13.6014 12.3054 13.2039 12.2994 12.7974L12.2119 4.72363L16.3768 7.04343V16.4052Z" fill="#A5A7AB"/>
<path d="M16.3701 16.4051V6.95654L20.4418 9.36174V18.8103L16.3701 16.4051Z" fill="#58585A"/>
<path d="M12.2119 4.7236V0L16.3697 2.3184V7.0434" fill="#58585A"/>
<path d="M24.5118 8.33136V21.1288L20.4416 18.8104V9.36176L16.377 7.04336V2.31836L23.4727 6.35596C23.787 6.58422 24.0442 6.88108 24.2244 7.2236C24.4046 7.56612 24.5029 7.94514 24.5118 8.33136Z" fill="#232529"/>
<path d="M12.2122 15.3749V18.7237L0 11.7671V7.04346L11.1731 13.4835C11.8663 13.8265 12.2122 14.6035 12.2122 15.3735" fill="#232529"/>
<path d="M12.2122 27.9999L1.12951 21.5599C0.783163 21.3577 0.496506 21.0688 0.298274 20.7221C0.100042 20.3754 -0.00279984 19.9831 5.7976e-05 19.5845V16.3183L12.2122 23.3617" fill="#A5A7AB"/>
<path d="M12.2122 23.3619L0 16.3185V11.5949L12.2122 18.7237V23.3619Z" fill="#58585A"/>
<path d="M53.9769 8.41138H52.4141V22.5458H53.9769V8.41138Z" fill="#232529"/>
<path d="M64.205 17.6402V11.8134C64.205 11.3474 64.0183 10.9005 63.686 10.571C63.3538 10.2415 62.9031 10.0564 62.4332 10.0564H58.0453C57.5753 10.0564 57.1247 10.2415 56.7924 10.571C56.4601 10.9005 56.2734 11.3474 56.2734 11.8134V17.6402C56.2734 18.1062 56.4601 18.5531 56.7924 18.8826C57.1247 19.2121 57.5753 19.3972 58.0453 19.3972H62.4332C62.9031 19.3972 63.3538 19.2121 63.686 18.8826C64.0183 18.5531 64.205 18.1062 64.205 17.6402ZM62.7932 18.0728H57.6923V15.4786H62.7861L62.7932 18.0728ZM62.7932 14.0632H57.6923V11.469H62.7861L62.7932 14.0632Z" fill="#232529"/>
<path d="M66.4359 6.58006H55.4845C54.6529 6.53386 53.947 5.82966 53.2044 5.25146L52.2373 6.46246C52.4759 6.64866 53.7748 8.06826 55.4012 8.12846H66.515V21.0001H62.7878V22.5401H66.515C66.909 22.5397 67.2868 22.3842 67.5653 22.1078C67.8438 21.8314 68.0002 21.4566 68.0002 21.0659V8.12846C68.0002 7.92489 67.9597 7.72331 67.8811 7.53527C67.8024 7.34723 67.6872 7.17641 67.5419 7.03259C67.3966 6.88877 67.2241 6.77477 67.0343 6.69713C66.8446 6.61948 66.6412 6.5797 66.4359 6.58006Z" fill="#232529"/>
<path d="M48.2132 14.528H40.7955V13.0188H47.1798V11.469H40.7955V9.95978H47.7388V8.41138H32.2908V9.95978H39.2341V11.469H32.8499V13.0188H39.2341V14.528H31.8164V16.0778H48.2132V14.528Z" fill="#232529"/>
<path d="M40.8469 19.04H48.2137V17.4832H40.8017V16.5032H39.2346V17.4832H31.817V19.04H39.0666C37.3866 21.1512 33.9064 21.252 32.5087 21.2002L31.6885 21.1428V22.75H33.2499C35.0655 22.7262 38.0783 22.3566 39.9561 20.377C41.8352 22.3566 44.848 22.7262 46.6636 22.75H48.3662V21.14L47.4048 21.1974C46.0071 21.245 42.527 21.14 40.8469 19.04Z" fill="#232529"/>
<path d="M38.1871 8.04181C38.6519 8.04402 39.1149 7.98422 39.5636 7.86401C40.0323 7.72377 40.4874 7.54197 40.9232 7.32081C41.1265 7.22421 41.3298 7.12761 41.5388 7.04081C42.102 6.81375 42.7168 6.74262 43.3176 6.83501C43.8584 6.91481 44.3878 7.15841 44.9483 7.41741L45.2772 7.56861L45.3083 7.58121L45.9281 6.16721L45.602 6.02021C44.9652 5.72621 44.3059 5.42101 43.5407 5.31041C42.6626 5.17802 41.7648 5.28447 40.943 5.61841C40.71 5.71361 40.4827 5.82141 40.254 5.92921C39.901 6.10949 39.5331 6.25937 39.1542 6.37721C38.7021 6.49436 38.2324 6.52899 37.7678 6.47941C36.764 6.38421 35.7983 6.00341 34.731 5.55121L34.1211 6.97081C35.2661 7.45521 36.3955 7.89901 37.6196 8.01521C37.8102 8.03341 37.9993 8.04181 38.1871 8.04181Z" fill="#232529"/>
</svg>
